<svg width="516" height="211" viewBox="0 0 516 211" fill="none" xmlns="http://www.w3.org/2000/svg">
<g clip-path="url(#clip0_358_544)">
<path d="M231.257 166.28V157.88H222.764V114.76H231.257V106.267H257.577V114.76H266.164V132.493H257.577V139.96H266.164V157.88H257.577V166.28H231.257ZM232.191 156.947H256.644V140.893H239.657V131.653H256.644V115.693H232.191V156.947ZM290.612 183.173V174.773H282.118V165.44H291.545V173.84H316.092V157.88H290.612V149.387H282.118V123.16H291.545V148.453H316.092V123.16H325.518V174.773H317.025V183.173H290.612ZM358.366 166.28V157.88H349.966V132.493H341.472V123.16H349.966V106.267H359.299V123.16H384.872V132.493H359.299V156.947H383.939V148.453H393.366V157.88H384.872V166.28H358.366ZM414.971 166.28V157.88H406.478V131.653H414.971V123.16H441.291V131.653H449.878V140.893H440.358V132.493H415.904V139.96H432.891V149.387H415.904V156.947H440.358V148.36H449.878V157.787H441.291V166.28H414.971ZM465.832 166.28V156.947H499.712V149.387H474.325V140.893H465.832V131.653H474.325V123.16H509.232V132.493H475.258V139.96H500.645V148.453H509.232V157.88H500.645V166.28H465.832Z" fill="black"/>
<path d="M256.705 70.5037C256.417 72.8543 255.829 75.049 254.942 77.0878C254.054 79.1266 252.879 80.8775 251.416 82.3407C249.953 83.8518 248.214 85.0391 246.199 85.9025C244.208 86.7421 241.965 87.1498 239.471 87.1258C237.384 87.1258 235.501 86.802 233.822 86.1544C232.143 85.5068 230.656 84.6313 229.361 83.528C228.018 82.4246 226.866 81.1294 225.907 79.6423C224.971 78.1552 224.192 76.5601 223.568 74.8571C222.945 73.1301 222.477 71.3552 222.165 69.5323C221.853 67.6854 221.685 65.8505 221.661 64.0275V56.4361C221.685 54.6131 221.853 52.7782 222.165 50.9313C222.477 49.0844 222.945 47.2975 223.568 45.5705C224.192 43.8675 224.983 42.2725 225.943 40.7854C226.902 39.2982 228.042 38.003 229.361 36.8997C230.656 35.7963 232.143 34.9328 233.822 34.3092C235.501 33.6616 237.384 33.3258 239.471 33.3018C242.013 33.2778 244.292 33.6976 246.307 34.5611C248.322 35.4006 250.049 36.5639 251.488 38.051C252.951 39.5381 254.114 41.313 254.978 43.3758C255.865 45.4146 256.441 47.6333 256.705 50.0319H252.459C252.171 48.2329 251.704 46.5419 251.056 44.9589C250.432 43.3758 249.593 41.9846 248.537 40.7854C247.482 39.6101 246.211 38.6866 244.724 38.015C243.237 37.3194 241.486 36.9716 239.471 36.9716C237.792 36.9956 236.281 37.2954 234.938 37.8711C233.618 38.4228 232.467 39.1783 231.484 40.1377C230.476 41.0972 229.625 42.2245 228.929 43.5197C228.233 44.791 227.67 46.1462 227.238 47.5853C226.806 49.0245 226.483 50.4996 226.267 52.0107C226.075 53.4978 225.979 54.9489 225.979 56.3641V64.0275C225.979 65.4427 226.075 66.9058 226.267 68.4169C226.483 69.9041 226.806 71.3672 227.238 72.8063C227.67 74.2455 228.221 75.6127 228.893 76.9079C229.589 78.1791 230.44 79.3065 231.448 80.2899C232.455 81.2733 233.618 82.0528 234.938 82.6285C236.257 83.1802 237.768 83.456 239.471 83.456C241.486 83.48 243.237 83.1562 244.724 82.4846C246.235 81.813 247.518 80.8895 248.573 79.7142C249.605 78.5629 250.432 77.1957 251.056 75.6127C251.704 74.0296 252.171 72.3266 252.459 70.5037H256.705ZM263.956 66.3662C263.956 63.7277 264.352 61.2212 265.144 58.8466C265.935 56.472 267.075 54.3973 268.562 52.6223C270.049 50.8234 271.86 49.3962 273.994 48.3409C276.129 47.2855 278.564 46.7578 281.298 46.7578C284.008 46.7578 286.431 47.2855 288.566 48.3409C290.725 49.3962 292.559 50.8114 294.071 52.5863C295.534 54.3853 296.661 56.472 297.453 58.8466C298.244 61.2212 298.652 63.7277 298.676 66.3662V67.5535C298.652 70.1919 298.244 72.6984 297.453 75.073C296.685 77.4236 295.558 79.4984 294.071 81.2973C292.583 83.0722 290.772 84.4874 288.638 85.5428C286.503 86.5981 284.08 87.1258 281.37 87.1258C278.636 87.1258 276.189 86.6101 274.03 85.5787C271.872 84.5234 270.061 83.0962 268.598 81.2973C267.087 79.5223 265.935 77.4476 265.144 75.073C264.352 72.6984 263.956 70.1919 263.956 67.5535V66.3662ZM268.238 67.5535C268.238 69.6162 268.526 71.607 269.101 73.5259C269.677 75.4448 270.517 77.1358 271.62 78.5989C272.723 80.086 274.09 81.2733 275.721 82.1608C277.352 83.0243 279.235 83.456 281.37 83.456C283.481 83.456 285.34 83.0243 286.947 82.1608C288.554 81.2733 289.921 80.086 291.048 78.5989C292.128 77.1118 292.943 75.4208 293.495 73.5259C294.071 71.607 294.37 69.6162 294.394 67.5535V66.3662C294.37 64.3274 294.071 62.3485 293.495 60.4297C292.919 58.5108 292.092 56.8198 291.012 55.3567C289.885 53.8696 288.506 52.6823 286.875 51.7948C285.268 50.9073 283.409 50.4636 281.298 50.4636C279.163 50.4636 277.292 50.9073 275.685 51.7948C274.078 52.6823 272.723 53.8696 271.62 55.3567C270.517 56.8198 269.677 58.5108 269.101 60.4297C268.526 62.3485 268.238 64.3274 268.238 66.3662V67.5535ZM308.194 86.4062V47.4774H312.152L312.404 55.0329C313.003 53.9056 313.711 52.8622 314.527 51.9028C315.342 50.9433 316.253 50.1158 317.261 49.4202C318.436 48.6047 319.731 47.9571 321.147 47.4774C322.586 46.9977 324.109 46.7578 325.716 46.7578C327.851 46.7578 329.733 47.0816 331.365 47.7292C333.02 48.3768 334.399 49.3243 335.502 50.5715C336.629 51.8428 337.481 53.3899 338.057 55.2128C338.632 57.0357 338.92 59.1105 338.92 61.4371V86.4062H334.639V61.509C334.615 59.7341 334.399 58.163 333.991 56.7958C333.607 55.4287 333.008 54.2773 332.192 53.3419C331.353 52.4065 330.309 51.6989 329.062 51.2192C327.839 50.7394 326.375 50.5116 324.672 50.5356C323.185 50.5356 321.782 50.7994 320.463 51.3271C319.144 51.8308 317.944 52.5144 316.865 53.3779C315.858 54.1934 314.982 55.1648 314.239 56.2921C313.495 57.3955 312.919 58.5708 312.512 59.8181V86.4062H308.194ZM364.593 37.5113V47.4774H379.02V51.0393H364.593V75.4328C364.617 76.9439 364.845 78.2031 365.277 79.2105C365.708 80.2179 366.308 81.0215 367.075 81.6211C367.843 82.2447 368.742 82.6885 369.774 82.9523C370.805 83.2161 371.909 83.3481 373.084 83.3481C373.779 83.3481 374.475 83.3241 375.171 83.2761C375.866 83.2042 376.55 83.1322 377.221 83.0602C377.725 82.9883 378.217 82.9163 378.697 82.8444C379.2 82.7484 379.632 82.6645 379.992 82.5925L380.639 85.8666C380.208 86.0824 379.704 86.2623 379.128 86.4062C378.577 86.5502 377.989 86.6701 377.365 86.766C376.574 86.91 375.746 87.0059 374.883 87.0539C374.043 87.1018 373.204 87.1258 372.364 87.1258C370.637 87.1258 369.03 86.91 367.543 86.4782C366.08 86.0704 364.809 85.3988 363.729 84.4634C362.65 83.5519 361.799 82.3527 361.175 80.8655C360.575 79.3784 360.264 77.5675 360.24 75.4328V51.0393H349.41V47.4774H360.24V37.5113H364.593ZM408.903 87.1258C406.216 87.1258 403.758 86.6221 401.527 85.6147C399.296 84.6073 397.39 83.2401 395.807 81.5132C394.199 79.7622 392.952 77.7354 392.065 75.4328C391.177 73.1062 390.734 70.6356 390.734 68.0212V66.4741C390.734 63.7157 391.177 61.1373 392.065 58.7387C392.976 56.3161 394.223 54.2174 395.807 52.4424C397.342 50.6915 399.165 49.3123 401.275 48.3049C403.386 47.2735 405.665 46.7578 408.111 46.7578C410.678 46.7578 412.956 47.2255 414.947 48.161C416.938 49.0724 418.617 50.3317 419.984 51.9387C421.351 53.5698 422.383 55.4766 423.078 57.6593C423.774 59.8181 424.134 62.1327 424.158 64.6032V67.2296H395.015V68.4169C395.111 70.4797 395.495 72.3986 396.166 74.1735C396.838 75.9485 397.785 77.5195 399.009 78.8867C400.208 80.2779 401.659 81.3932 403.362 82.2327C405.089 83.0482 406.996 83.456 409.083 83.456C411.481 83.48 413.652 83.0363 415.595 82.1248C417.538 81.2133 419.205 79.8941 420.596 78.1671L423.294 80.2179C421.831 82.2807 419.876 83.9477 417.43 85.219C414.983 86.4902 412.141 87.1258 408.903 87.1258ZM408.111 50.4636C406.336 50.4636 404.717 50.7994 403.254 51.471C401.791 52.1186 400.508 53.0181 399.404 54.1694C398.301 55.3447 397.39 56.7359 396.67 58.3429C395.95 59.95 395.459 61.6889 395.195 63.5598H419.876V63.1641C419.876 61.581 419.588 60.0099 419.013 58.4509C418.461 56.8918 417.694 55.5246 416.71 54.3493C415.703 53.174 414.479 52.2386 413.04 51.543C411.601 50.8234 409.958 50.4636 408.111 50.4636ZM434.324 86.4062V47.4774H438.281L438.533 55.0329C439.133 53.9056 439.841 52.8622 440.656 51.9028C441.472 50.9433 442.383 50.1158 443.39 49.4202C444.566 48.6047 445.861 47.9571 447.276 47.4774C448.715 46.9977 450.238 46.7578 451.845 46.7578C453.98 46.7578 455.863 47.0816 457.494 47.7292C459.149 48.3768 460.528 49.3243 461.632 50.5715C462.759 51.8428 463.61 53.3899 464.186 55.2128C464.762 57.0357 465.05 59.1105 465.05 61.4371V86.4062H460.768V61.509C460.744 59.7341 460.528 58.163 460.12 56.7958C459.737 55.4287 459.137 54.2773 458.322 53.3419C457.482 52.4065 456.439 51.6989 455.191 51.2192C453.968 50.7394 452.505 50.5116 450.802 50.5356C449.315 50.5356 447.912 50.7994 446.593 51.3271C445.273 51.8308 444.074 52.5144 442.995 53.3779C441.987 54.1934 441.112 55.1648 440.368 56.2921C439.625 57.3955 439.049 58.5708 438.641 59.8181V86.4062H434.324ZM490.722 37.5113V47.4774H505.15V51.0393H490.722V75.4328C490.746 76.9439 490.974 78.2031 491.406 79.2105C491.838 80.2179 492.437 81.0215 493.205 81.6211C493.973 82.2447 494.872 82.6885 495.903 82.9523C496.935 83.2161 498.038 83.3481 499.213 83.3481C499.909 83.3481 500.605 83.3241 501.3 83.2761C501.996 83.2042 502.679 83.1322 503.351 83.0602C503.855 82.9883 504.346 82.9163 504.826 82.8444C505.33 82.7484 505.762 82.6645 506.121 82.5925L506.769 85.8666C506.337 86.0824 505.833 86.2623 505.258 86.4062C504.706 86.5502 504.118 86.6701 503.495 86.766C502.703 86.91 501.876 87.0059 501.012 87.0539C500.173 87.1018 499.333 87.1258 498.494 87.1258C496.767 87.1258 495.16 86.91 493.673 86.4782C492.21 86.0704 490.938 85.3988 489.859 84.4634C488.78 83.5519 487.928 82.3527 487.304 80.8655C486.705 79.3784 486.393 77.5675 486.369 75.4328V51.0393H475.539V47.4774H486.369V37.5113H490.722Z" fill="black"/>
</g>
<g clip-path="url(#clip1_358_544)">
<path fill-rule="evenodd" clip-rule="evenodd" d="M179.797 180.108C175.408 184.458 170.618 188.439 165.466 191.99C144.058 206.747 117.936 213.038 92.1565 209.645C66.3769 206.252 42.7727 193.416 25.912 173.622C9.05137 153.827 0.133238 128.482 0.883624 102.491C1.63401 76.4997 11.9996 51.711 29.9741 32.9224C47.9487 14.1338 72.2542 2.6811 98.1866 0.78096C124.119 -1.11918 149.834 6.6683 170.356 22.6362C173.688 25.2294 176.845 28.0084 179.816 30.954C178.035 32.1248 176.345 33.4933 174.779 35.0596C168.327 41.5119 165.231 50.0496 165.491 58.5032C163.692 59.5954 161.993 60.9189 160.439 62.4735C156.139 66.773 153.608 72.1714 152.845 77.7646C149.386 71.9083 144.833 66.701 139.373 62.4532C128.71 54.156 115.348 50.1095 101.873 51.0968C88.3986 52.0842 75.7691 58.0351 66.4292 67.798C57.0894 77.5608 51.7033 90.4413 51.3134 103.947C50.9235 117.452 55.5575 130.622 64.3185 140.907C73.0795 151.193 85.3446 157.862 98.7401 159.625C112.135 161.389 125.709 158.12 136.833 150.452C143.346 145.962 148.749 140.151 152.734 133.466C153.33 139.392 155.899 145.157 160.439 149.697C161.989 151.248 163.682 152.568 165.476 153.659C165.502 161.753 168.603 169.839 174.779 176.015C176.34 177.575 178.023 178.94 179.797 180.108ZM207.814 87.4799C208.288 87.3129 208.759 87.1344 209.226 86.9442C209.243 87.0365 209.26 87.1288 209.276 87.2212L207.814 87.4799Z" fill="#009402"/>
<line x1="133.466" y1="24.0729" x2="115.048" y2="36.6129" stroke="#E852A2" stroke-width="5.64912" stroke-linecap="round"/>
<line x1="84.3102" y1="33.6223" x2="62.7876" y2="27.8553" stroke="#FFD700" stroke-width="5.64912" stroke-linecap="round"/>
<line x1="52.415" y1="61.651" x2="33.9969" y2="74.191" stroke="#E852A2" stroke-width="5.64912" stroke-linecap="round"/>
<line x1="38.3056" y1="118.549" x2="19.009" y2="107.409" stroke="#FFD700" stroke-width="5.64912" stroke-linecap="round"/>
<line x1="50.6924" y1="145.897" x2="32.2742" y2="158.437" stroke="#E852A2" stroke-width="5.64912" stroke-linecap="round"/>
<line x1="84.3102" y1="179.025" x2="62.7876" y2="173.258" stroke="#FFD700" stroke-width="5.64912" stroke-linecap="round"/>
<line x1="132.485" y1="177.335" x2="114.067" y2="189.875" stroke="#E852A2" stroke-width="5.64912" stroke-linecap="round"/>
</g>
<defs>
<clipPath id="clip0_358_544">
<rect width="297.93" height="181.754" fill="white" transform="translate(217.227 9.34375)"/>
</clipPath>
<clipPath id="clip1_358_544">
<rect width="216.386" height="210" fill="white" transform="translate(0.84375 0.5)"/>
</clipPath>
</defs>
</svg>
