<svg width="515" height="210" viewBox="0 0 515 210" fill="none" xmlns="http://www.w3.org/2000/svg">
<g clip-path="url(#clip0_375_101)">
<path d="M230.414 165.78V157.38H221.92V114.26H230.414V105.767H256.734V114.26H265.32V131.993H256.734V139.46H265.32V157.38H256.734V165.78H230.414ZM231.347 156.447H255.8V140.393H238.814V131.153H255.8V115.193H231.347V156.447ZM289.768 182.673V174.273H281.274V164.94H290.701V173.34H315.248V157.38H289.768V148.887H281.274V122.66H290.701V147.953H315.248V122.66H324.674V174.273H316.181V182.673H289.768ZM357.522 165.78V157.38H349.122V131.993H340.629V122.66H349.122V105.767H358.455V122.66H384.029V131.993H358.455V156.447H383.095V147.953H392.522V157.38H384.029V165.78H357.522ZM414.127 165.78V157.38H405.634V131.153H414.127V122.66H440.447V131.153H449.034V140.393H439.514V131.993H415.061V139.46H432.047V148.887H415.061V156.447H439.514V147.86H449.034V157.287H440.447V165.78H414.127ZM464.988 165.78V156.447H498.868V148.887H473.481V140.393H464.988V131.153H473.481V122.66H508.388V131.993H474.415V139.46H499.801V147.953H508.388V157.38H499.801V165.78H464.988Z" fill="white"/>
<path d="M255.861 70.0037C255.573 72.3543 254.985 74.549 254.098 76.5878C253.21 78.6266 252.035 80.3775 250.572 81.8407C249.109 83.3518 247.37 84.5391 245.355 85.4025C243.364 86.2421 241.122 86.6498 238.627 86.6258C236.54 86.6258 234.657 86.302 232.978 85.6544C231.299 85.0068 229.812 84.1313 228.517 83.028C227.174 81.9246 226.023 80.6294 225.063 79.1423C224.128 77.6552 223.348 76.0601 222.725 74.3571C222.101 72.6301 221.633 70.8552 221.321 69.0323C221.01 67.1854 220.842 65.3505 220.818 63.5275V55.9361C220.842 54.1131 221.01 52.2782 221.321 50.4313C221.633 48.5844 222.101 46.7975 222.725 45.0705C223.348 43.3675 224.14 41.7725 225.099 40.2854C226.059 38.7982 227.198 37.503 228.517 36.3997C229.812 35.2963 231.299 34.4328 232.978 33.8092C234.657 33.1616 236.54 32.8258 238.627 32.8018C241.17 32.7778 243.448 33.1976 245.463 34.0611C247.478 34.9006 249.205 36.0639 250.644 37.551C252.107 39.0381 253.27 40.813 254.134 42.8758C255.021 44.9146 255.597 47.1333 255.861 49.5319H251.615C251.328 47.7329 250.86 46.0419 250.212 44.4589C249.589 42.8758 248.749 41.4846 247.694 40.2854C246.638 39.1101 245.367 38.1866 243.88 37.515C242.393 36.8194 240.642 36.4716 238.627 36.4716C236.948 36.4956 235.437 36.7954 234.094 37.3711C232.775 37.9228 231.623 38.6783 230.64 39.6377C229.632 40.5972 228.781 41.7245 228.085 43.0197C227.39 44.291 226.826 45.6462 226.394 47.0853C225.963 48.5245 225.639 49.9996 225.423 51.5107C225.231 52.9978 225.135 54.4489 225.135 55.8641V63.5275C225.135 64.9427 225.231 66.4058 225.423 67.9169C225.639 69.4041 225.963 70.8672 226.394 72.3063C226.826 73.7455 227.378 75.1127 228.049 76.4079C228.745 77.6791 229.596 78.8065 230.604 79.7899C231.611 80.7733 232.775 81.5528 234.094 82.1285C235.413 82.6802 236.924 82.956 238.627 82.956C240.642 82.98 242.393 82.6562 243.88 81.9846C245.391 81.313 246.674 80.3895 247.73 79.2142C248.761 78.0629 249.589 76.6957 250.212 75.1127C250.86 73.5296 251.328 71.8266 251.615 70.0037H255.861ZM263.113 65.8662C263.113 63.2277 263.508 60.7212 264.3 58.3466C265.091 55.972 266.231 53.8973 267.718 52.1223C269.205 50.3234 271.016 48.8962 273.151 47.8409C275.285 46.7855 277.72 46.2578 280.454 46.2578C283.165 46.2578 285.587 46.7855 287.722 47.8409C289.881 48.8962 291.716 50.3114 293.227 52.0863C294.69 53.8853 295.817 55.972 296.609 58.3466C297.4 60.7212 297.808 63.2277 297.832 65.8662V67.0535C297.808 69.6919 297.4 72.1984 296.609 74.573C295.841 76.9236 294.714 78.9984 293.227 80.7973C291.74 82.5722 289.929 83.9874 287.794 85.0428C285.659 86.0981 283.237 86.6258 280.526 86.6258C277.792 86.6258 275.345 86.1101 273.187 85.0787C271.028 84.0234 269.217 82.5962 267.754 80.7973C266.243 79.0223 265.091 76.9476 264.3 74.573C263.508 72.1984 263.113 69.6919 263.113 67.0535V65.8662ZM267.394 67.0535C267.394 69.1162 267.682 71.107 268.258 73.0259C268.833 74.9448 269.673 76.6358 270.776 78.0989C271.879 79.586 273.247 80.7733 274.878 81.6608C276.509 82.5243 278.392 82.956 280.526 82.956C282.637 82.956 284.496 82.5243 286.103 81.6608C287.71 80.7733 289.077 79.586 290.205 78.0989C291.284 76.6118 292.099 74.9208 292.651 73.0259C293.227 71.107 293.527 69.1162 293.551 67.0535V65.8662C293.527 63.8274 293.227 61.8485 292.651 59.9297C292.075 58.0108 291.248 56.3198 290.169 54.8567C289.041 53.3696 287.662 52.1823 286.031 51.2948C284.424 50.4073 282.565 49.9636 280.454 49.9636C278.32 49.9636 276.449 50.4073 274.842 51.2948C273.235 52.1823 271.879 53.3696 270.776 54.8567C269.673 56.3198 268.833 58.0108 268.258 59.9297C267.682 61.8485 267.394 63.8274 267.394 65.8662V67.0535ZM307.351 85.9062V46.9774H311.308L311.56 54.5329C312.16 53.4056 312.867 52.3622 313.683 51.4028C314.498 50.4433 315.41 49.6158 316.417 48.9202C317.592 48.1047 318.888 47.4571 320.303 46.9774C321.742 46.4977 323.265 46.2578 324.872 46.2578C327.007 46.2578 328.89 46.5816 330.521 47.2292C332.176 47.8768 333.555 48.8243 334.658 50.0715C335.786 51.3428 336.637 52.8899 337.213 54.7128C337.788 56.5357 338.076 58.6105 338.076 60.9371V85.9062H333.795V61.009C333.771 59.2341 333.555 57.663 333.147 56.2958C332.763 54.9287 332.164 53.7773 331.348 52.8419C330.509 51.9065 329.465 51.1989 328.218 50.7192C326.995 50.2394 325.532 50.0116 323.829 50.0356C322.342 50.0356 320.938 50.2994 319.619 50.8271C318.3 51.3308 317.101 52.0144 316.021 52.8779C315.014 53.6934 314.139 54.6648 313.395 55.7921C312.651 56.8955 312.076 58.0708 311.668 59.3181V85.9062H307.351ZM363.749 37.0113V46.9774H378.177V50.5393H363.749V74.9328C363.773 76.4439 364.001 77.7031 364.433 78.7105C364.865 79.7179 365.464 80.5215 366.232 81.1211C366.999 81.7447 367.899 82.1885 368.93 82.4523C369.961 82.7161 371.065 82.8481 372.24 82.8481C372.936 82.8481 373.631 82.8241 374.327 82.7761C375.022 82.7042 375.706 82.6322 376.378 82.5602C376.881 82.4883 377.373 82.4163 377.853 82.3444C378.356 82.2484 378.788 82.1645 379.148 82.0925L379.796 85.3666C379.364 85.5824 378.86 85.7623 378.285 85.9062C377.733 86.0502 377.145 86.1701 376.522 86.266C375.73 86.41 374.903 86.5059 374.039 86.5539C373.2 86.6018 372.36 86.6258 371.521 86.6258C369.794 86.6258 368.187 86.41 366.699 85.9782C365.236 85.5704 363.965 84.8988 362.886 83.9634C361.806 83.0519 360.955 81.8527 360.331 80.3655C359.732 78.8784 359.42 77.0675 359.396 74.9328V50.5393H348.566V46.9774H359.396V37.0113H363.749ZM408.059 86.6258C405.373 86.6258 402.914 86.1221 400.683 85.1147C398.453 84.1073 396.546 82.7401 394.963 81.0132C393.356 79.2622 392.108 77.2354 391.221 74.9328C390.334 72.6062 389.89 70.1356 389.89 67.5212V65.9741C389.89 63.2157 390.334 60.6373 391.221 58.2387C392.132 55.8161 393.38 53.7174 394.963 51.9424C396.498 50.1915 398.321 48.8123 400.432 47.8049C402.542 46.7735 404.821 46.2578 407.267 46.2578C409.834 46.2578 412.113 46.7255 414.103 47.661C416.094 48.5724 417.773 49.8317 419.14 51.4387C420.508 53.0698 421.539 54.9766 422.235 57.1593C422.93 59.3181 423.29 61.6327 423.314 64.1032V66.7296H394.171V67.9169C394.267 69.9797 394.651 71.8986 395.323 73.6735C395.994 75.4485 396.942 77.0195 398.165 78.3867C399.364 79.7779 400.815 80.8932 402.518 81.7327C404.245 82.5482 406.152 82.956 408.239 82.956C410.637 82.98 412.808 82.5363 414.751 81.6248C416.694 80.7133 418.361 79.3941 419.752 77.6671L422.45 79.7179C420.987 81.7807 419.032 83.4477 416.586 84.719C414.139 85.9902 411.297 86.6258 408.059 86.6258ZM407.267 49.9636C405.493 49.9636 403.873 50.2994 402.41 50.971C400.947 51.6186 399.664 52.5181 398.561 53.6694C397.457 54.8447 396.546 56.2359 395.826 57.8429C395.107 59.45 394.615 61.1889 394.351 63.0598H419.032V62.6641C419.032 61.081 418.745 59.5099 418.169 57.9509C417.617 56.3918 416.85 55.0246 415.866 53.8493C414.859 52.674 413.636 51.7386 412.197 51.043C410.757 50.3234 409.114 49.9636 407.267 49.9636ZM433.48 85.9062V46.9774H437.438L437.69 54.5329C438.289 53.4056 438.997 52.3622 439.812 51.4028C440.628 50.4433 441.539 49.6158 442.547 48.9202C443.722 48.1047 445.017 47.4571 446.432 46.9774C447.871 46.4977 449.395 46.2578 451.002 46.2578C453.136 46.2578 455.019 46.5816 456.65 47.2292C458.305 47.8768 459.684 48.8243 460.788 50.0715C461.915 51.3428 462.767 52.8899 463.342 54.7128C463.918 56.5357 464.206 58.6105 464.206 60.9371V85.9062H459.924V61.009C459.9 59.2341 459.684 57.663 459.277 56.2958C458.893 54.9287 458.293 53.7773 457.478 52.8419C456.638 51.9065 455.595 51.1989 454.348 50.7192C453.124 50.2394 451.661 50.0116 449.958 50.0356C448.471 50.0356 447.068 50.2994 445.749 50.8271C444.43 51.3308 443.23 52.0144 442.151 52.8779C441.143 53.6934 440.268 54.6648 439.524 55.7921C438.781 56.8955 438.205 58.0708 437.797 59.3181V85.9062H433.48ZM489.879 37.0113V46.9774H504.306V50.5393H489.879V74.9328C489.903 76.4439 490.131 77.7031 490.562 78.7105C490.994 79.7179 491.594 80.5215 492.361 81.1211C493.129 81.7447 494.028 82.1885 495.06 82.4523C496.091 82.7161 497.194 82.8481 498.37 82.8481C499.065 82.8481 499.761 82.8241 500.456 82.7761C501.152 82.7042 501.836 82.6322 502.507 82.5602C503.011 82.4883 503.503 82.4163 503.982 82.3444C504.486 82.2484 504.918 82.1645 505.278 82.0925L505.925 85.3666C505.493 85.5824 504.99 85.7623 504.414 85.9062C503.862 86.0502 503.275 86.1701 502.651 86.266C501.86 86.41 501.032 86.5059 500.169 86.5539C499.329 86.6018 498.49 86.6258 497.65 86.6258C495.923 86.6258 494.316 86.41 492.829 85.9782C491.366 85.5704 490.095 84.8988 489.015 83.9634C487.936 83.0519 487.084 81.8527 486.461 80.3655C485.861 78.8784 485.549 77.0675 485.525 74.9328V50.5393H474.696V46.9774H485.525V37.0113H489.879Z" fill="white"/>
</g>
<g clip-path="url(#clip1_375_101)">
<path fill-rule="evenodd" clip-rule="evenodd" d="M178.953 179.608C174.564 183.958 169.774 187.939 164.622 191.49C143.214 206.247 117.092 212.538 91.3128 209.145C65.5332 205.752 41.9289 192.916 25.0683 173.122C8.20762 153.327 -0.710512 127.982 0.039874 101.991C0.79026 75.9997 11.1558 51.211 29.1304 32.4224C47.105 13.6338 71.4105 2.1811 97.3428 0.28096C123.275 -1.61918 148.99 6.1683 169.512 22.1362C172.844 24.7294 176.002 27.5084 178.972 30.454C177.191 31.6248 175.502 32.9933 173.935 34.5596C167.483 41.0119 164.387 49.5496 164.647 58.0032C162.848 59.0954 161.15 60.4189 159.595 61.9735C155.295 66.273 152.764 71.6714 152.002 77.2646C148.542 71.4083 143.989 66.201 138.53 61.9532C127.866 53.656 114.504 49.6095 101.03 50.5968C87.5548 51.5842 74.9253 57.5351 65.5855 67.298C56.2456 77.0608 50.8595 89.9414 50.4696 103.447C50.0797 116.952 54.7137 130.122 63.4747 140.407C72.2358 150.693 84.5009 157.362 97.8963 159.125C111.292 160.889 124.865 157.62 135.989 149.952C142.502 145.462 147.905 139.651 151.89 132.966C152.487 138.892 155.055 144.657 159.595 149.197C161.145 150.748 162.838 152.068 164.632 153.159C164.658 161.253 167.76 169.339 173.935 175.515C175.496 177.075 177.179 178.44 178.953 179.608ZM206.97 86.9799C207.444 86.8129 207.915 86.6344 208.383 86.4442C208.399 86.5365 208.416 86.6288 208.432 86.7212L206.97 86.9799Z" fill="#009402"/>
<line x1="132.622" y1="23.5729" x2="114.204" y2="36.1129" stroke="#E852A2" stroke-width="5.64912" stroke-linecap="round"/>
<line x1="83.4664" y1="33.1223" x2="61.9438" y2="27.3553" stroke="#FFD700" stroke-width="5.64912" stroke-linecap="round"/>
<line x1="51.5713" y1="61.151" x2="33.1531" y2="73.691" stroke="#E852A2" stroke-width="5.64912" stroke-linecap="round"/>
<line x1="37.4619" y1="118.049" x2="18.1652" y2="106.909" stroke="#FFD700" stroke-width="5.64912" stroke-linecap="round"/>
<line x1="49.8486" y1="145.397" x2="31.4305" y2="157.937" stroke="#E852A2" stroke-width="5.64912" stroke-linecap="round"/>
<line x1="83.4664" y1="178.525" x2="61.9438" y2="172.758" stroke="#FFD700" stroke-width="5.64912" stroke-linecap="round"/>
<line x1="131.642" y1="176.835" x2="113.223" y2="189.375" stroke="#E852A2" stroke-width="5.64912" stroke-linecap="round"/>
</g>
<defs>
<clipPath id="clip0_375_101">
<rect width="297.93" height="181.754" fill="white" transform="translate(216.383 8.84375)"/>
</clipPath>
<clipPath id="clip1_375_101">
<rect width="216.386" height="210" fill="white"/>
</clipPath>
</defs>
</svg>
