<svg width="201" height="201" viewBox="0 0 201 201" fill="none" xmlns="http://www.w3.org/2000/svg">
<path fill-rule="evenodd" clip-rule="evenodd" d="M171.4 172.02C167.221 176.162 162.66 179.952 157.755 183.334C137.37 197.385 112.497 203.376 87.9504 200.145C63.4035 196.914 40.9278 184.692 24.8734 165.844C8.81889 146.996 0.32718 122.862 1.04169 98.1141C1.75619 73.3657 11.6261 49.7624 28.7412 31.8721C45.8564 13.9819 68.9997 3.07681 93.6921 1.26753C118.385 -0.54176 142.87 6.87337 162.41 22.0778C165.584 24.547 168.59 27.1931 171.418 29.9979C169.722 31.1126 168.114 32.4157 166.622 33.9071C160.478 40.051 157.53 48.1804 157.778 56.2298C156.065 57.2698 154.448 58.5299 152.968 60.0102C148.874 64.1042 146.464 69.2444 145.737 74.5702C142.443 68.994 138.108 64.0356 132.91 59.9909C122.756 52.0904 110.033 48.2374 97.2026 49.1776C84.3721 50.1177 72.3465 55.7841 63.4532 65.0801C54.56 74.3762 49.4314 86.6408 49.0602 99.5004C48.6889 112.36 53.1013 124.9 61.4434 134.694C69.7856 144.487 81.4642 150.838 94.2191 152.517C106.974 154.196 119.898 151.083 130.49 143.782C136.692 139.507 141.836 133.973 145.631 127.608C146.199 133.251 148.645 138.741 152.968 143.064C154.444 144.54 156.056 145.797 157.764 146.835C157.789 154.543 160.742 162.242 166.622 168.122C168.108 169.609 169.711 170.908 171.4 172.02ZM198.078 83.821C198.529 83.662 198.978 83.492 199.423 83.3109L199.448 83.4546L199.47 83.5747L198.078 83.821Z" fill="#009402"/>
<line x1="127.283" y1="23.4438" x2="109.745" y2="35.3842" stroke="#E852A2" stroke-width="5.37901" stroke-linecap="round"/>
<line x1="80.4795" y1="32.5346" x2="59.986" y2="27.0434" stroke="#FFD700" stroke-width="5.37901" stroke-linecap="round"/>
<line x1="50.1069" y1="59.2251" x2="32.5694" y2="71.1655" stroke="#E852A2" stroke-width="5.37901" stroke-linecap="round"/>
<line x1="36.6737" y1="113.406" x2="18.2997" y2="102.798" stroke="#FFD700" stroke-width="5.37901" stroke-linecap="round"/>
<line x1="48.4702" y1="139.444" x2="30.9327" y2="151.384" stroke="#E852A2" stroke-width="5.37901" stroke-linecap="round"/>
<line x1="80.4795" y1="170.988" x2="59.986" y2="165.496" stroke="#FFD700" stroke-width="5.37901" stroke-linecap="round"/>
<line x1="126.349" y1="169.377" x2="108.812" y2="181.318" stroke="#E852A2" stroke-width="5.37901" stroke-linecap="round"/>
</svg>
